<svg xmlns="http://www.w3.org/2000/svg" width="640" height="440" viewBox="0 0 640 440" fill="none"><defs><pattern id="check" width="64" height="64" patternUnits="userSpaceOnUse"><rect width="64" height="64" fill="#edf0e3"/><path d="M0 0h32v32H0zm32 32h32v32H32z" fill="#78907a"/></pattern></defs><g stroke="#213c32" stroke-width="1.2"><path d="M91 235 328 98l220 127v24L311 386 91 259Z" fill="#c5ccbb"/><path d="m91 235 220 127 237-137M311 362v24"/><path d="M105 234 328 105l206 120-223 129Z" fill="#f2eee5"/><g transform="matrix(.866 -.5 .866 .5 121 236)"><rect width="240" height="208" fill="url(#check)"/><path d="M0 0h240v208H0Z"/></g><path d="m391 93 93 54v198l-93-54Z" stroke-dasharray="4 7" opacity=".4"/><path d="M231 270c-2-15 19-20 22-30l-2-31-16-5 4-28 28-23 21 3 13 14-12 14-18 4 10 39c4 11 23 9 24 23-14 17-52 26-74 20Z" fill="#f2eee5"/><path d="m239 176 23 13-11 20m20-21-9 1m26-33-9 17m-40 0-5-15 22 3M233 264c24 4 50-6 66-18"/><circle cx="268" cy="177" r="2" fill="#213c32"/><path d="M351 286c-2-13 13-16 16-24l2-22c-14-2-17-13-7-21 14-11 36-7 36 6 0 7-7 13-14 16l4 17c2 6 17 6 18 16-13 13-35 19-55 12Z" fill="#a34227" stroke="#a34227"/><path d="m556 158 8-5v150l-8 5Z" fill="#213c32"/><path d="m556 308 4 11 4-16"/></g><g stroke="#758477" stroke-dasharray="4 5"><path d="M73 294 288 418M70 290v-43M298 418l237-137"/></g><g fill="#62685e" font-family="monospace" font-size="9" letter-spacing="1"><text x="25" y="32">DEVICE STUDY / 02</text><text x="415" y="391">YOUR MOVE. OFFLINE.</text></g></svg>